<svg xmlns="http://www.w3.org/2000/svg" xmlns:xlink="http://www.w3.org/1999/xlink" viewBox="0 0 405.08 293.86"><defs><style>.cls-1,.cls-10,.cls-36{fill:none;}.cls-2{isolation:isolate;}.cls-103,.cls-13,.cls-23,.cls-3,.cls-44,.cls-8,.cls-80,.cls-90{mix-blend-mode:overlay;}.cls-3{opacity:0.41;}.cls-112,.cls-116,.cls-122,.cls-4,.cls-43,.cls-49,.cls-8,.cls-92{fill:#fff;}.cls-5,.cls-7,.cls-9,.cls-91,.cls-99{mix-blend-mode:multiply;}.cls-5,.cls-7{opacity:0.45;}.cls-113,.cls-26,.cls-6,.cls-7{fill:#bebfc4;}.cls-9,.cls-91,.cls-99{opacity:0.31;}.cls-9{fill:url(#Degradado_sin_nombre_7);}.cls-10{stroke:#c462ff;stroke-width:0.93px;}.cls-10,.cls-36{stroke-miterlimit:10;}.cls-11{fill:url(#Degradado_sin_nombre_6);}.cls-12{fill:url(#Degradado_sin_nombre_3);}.cls-13{fill:url(#Degradado_sin_nombre_173);}.cls-14{fill:#c462ff;}.cls-15{fill:#fafbff;}.cls-107,.cls-16{fill:#f2f4f3;}.cls-17{fill:url(#Degradado_sin_nombre_2);}.cls-18{font-size:3.66px;}.cls-18,.cls-54{fill:#b4b4b4;font-family:Montserrat-SemiBold, Montserrat SemiBold;font-weight:600;}.cls-19{letter-spacing:0.01em;}.cls-20{letter-spacing:-0.01em;}.cls-21{opacity:0.23;}.cls-22{clip-path:url(#clip-path);}.cls-23{opacity:0.68;}.cls-24{clip-path:url(#clip-path-2);}.cls-25{clip-path:url(#clip-path-3);}.cls-26{font-size:6.18px;}.cls-113,.cls-26,.cls-43,.cls-49{font-family:Montserrat-Bold, Montserrat Bold;font-weight:700;}.cls-27{fill:url(#Degradado_sin_nombre_2-2);}.cls-28{fill:url(#Degradado_sin_nombre_2-3);}.cls-29{fill:url(#Degradado_sin_nombre_2-4);}.cls-30{fill:url(#Degradado_sin_nombre_2-5);}.cls-31{fill:url(#Degradado_sin_nombre_2-6);}.cls-32{fill:url(#Degradado_sin_nombre_2-7);}.cls-33{fill:url(#Degradado_sin_nombre_2-8);}.cls-34{fill:url(#Degradado_sin_nombre_2-9);}.cls-35{fill:url(#Degradado_sin_nombre_2-10);}.cls-36{stroke:#bebfc4;stroke-width:0.47px;opacity:0.5;}.cls-37{fill:url(#Degradado_sin_nombre_10);filter:url(#filter);}.cls-38{fill:url(#Degradado_sin_nombre_46);}.cls-39{fill:url(#Degradado_sin_nombre_46-2);}.cls-40{clip-path:url(#clip-path-4);}.cls-41{fill:url(#Degradado_sin_nombre_3-2);}.cls-42{fill:url(#Degradado_sin_nombre_3-3);}.cls-43{font-size:7.7px;}.cls-44{opacity:0.75;}.cls-45{fill:url(#Degradado_sin_nombre_10-2);filter:url(#filter-2);}.cls-46{clip-path:url(#clip-path-5);}.cls-47{fill:url(#Degradado_sin_nombre_2-11);}.cls-48{fill:url(#Degradado_sin_nombre_46-3);}.cls-49{font-size:4.16px;}.cls-50{letter-spacing:-0.01em;}.cls-51{fill:url(#Degradado_sin_nombre_9);}.cls-52{fill:url(#Degradado_sin_nombre_3-4);}.cls-53{fill:url(#Degradado_sin_nombre_2-12);}.cls-54{font-size:3.36px;}.cls-55{letter-spacing:0.01em;}.cls-56{letter-spacing:0em;}.cls-57{letter-spacing:-0.01em;}.cls-58{clip-path:url(#clip-path-6);}.cls-59{opacity:0.49;}.cls-60{fill:url(#Degradado_sin_nombre_3-5);}.cls-61{fill:url(#Degradado_sin_nombre_3-6);}.cls-62{clip-path:url(#clip-path-7);}.cls-63{fill:url(#Degradado_sin_nombre_3-7);}.cls-64{fill:url(#Degradado_sin_nombre_3-8);}.cls-65{clip-path:url(#clip-path-8);}.cls-66{fill:url(#Degradado_sin_nombre_3-9);}.cls-67{fill:url(#Degradado_sin_nombre_3-10);}.cls-68{clip-path:url(#clip-path-9);}.cls-69{fill:url(#Degradado_sin_nombre_3-11);}.cls-70{fill:url(#Degradado_sin_nombre_3-12);}.cls-71{clip-path:url(#clip-path-10);}.cls-72{fill:url(#Degradado_sin_nombre_3-13);}.cls-73{fill:url(#Degradado_sin_nombre_3-14);}.cls-74{clip-path:url(#clip-path-11);}.cls-75{fill:url(#Degradado_sin_nombre_3-15);}.cls-76{fill:url(#Degradado_sin_nombre_3-16);}.cls-77{fill:url(#Degradado_sin_nombre_2-13);}.cls-78{fill:url(#Degradado_sin_nombre_2-14);}.cls-79{fill:url(#Degradado_sin_nombre_2-15);}.cls-81{fill:url(#Degradado_sin_nombre_2-16);}.cls-82{fill:url(#Degradado_sin_nombre_2-17);}.cls-83{fill:url(#Degradado_sin_nombre_2-18);}.cls-84{fill:url(#Degradado_sin_nombre_2-19);}.cls-85{fill:url(#Degradado_sin_nombre_2-20);}.cls-86{fill:url(#Degradado_sin_nombre_2-21);}.cls-87{fill:url(#Degradado_sin_nombre_2-22);}.cls-88{fill:url(#Degradado_sin_nombre_2-23);}.cls-89{fill:url(#Degradado_sin_nombre_2-24);}.cls-90{fill:url(#Degradado_sin_nombre_173-2);}.cls-91{fill:url(#Degradado_sin_nombre_7-2);}.cls-92{filter:url(#filter-3);}.cls-93{fill:url(#Degradado_sin_nombre_2-25);}.cls-94{fill:url(#Degradado_sin_nombre_2-26);}.cls-95{fill:url(#Degradado_sin_nombre_2-27);}.cls-96{clip-path:url(#clip-path-12);}.cls-97{fill:url(#Degradado_sin_nombre_3-17);}.cls-98{fill:url(#Degradado_sin_nombre_3-18);}.cls-99{fill:url(#Degradado_sin_nombre_7-3);}.cls-100{fill:url(#Degradado_sin_nombre_6-2);}.cls-101{fill:url(#Degradado_sin_nombre_5);}.cls-102{fill:url(#Degradado_sin_nombre_3-19);}.cls-103{fill:url(#Degradado_sin_nombre_173-3);}.cls-104{fill:url(#Degradado_sin_nombre_3-20);}.cls-105{fill:url(#Degradado_sin_nombre_2-28);}.cls-106{fill:url(#Degradado_sin_nombre_2-29);}.cls-107{font-size:4.28px;font-family:Montserrat-ExtraBold, Montserrat ExtraBold;font-weight:800;}.cls-108{letter-spacing:-0.01em;}.cls-109{letter-spacing:-0.01em;}.cls-110{letter-spacing:0em;}.cls-111{letter-spacing:0.01em;}.cls-112{filter:url(#filter-4);}.cls-113{font-size:5.43px;}.cls-114{letter-spacing:-0.01em;}.cls-115{fill:url(#Degradado_sin_nombre_2-30);}.cls-116{filter:url(#filter-5);}.cls-117{letter-spacing:-0.03em;}.cls-118{letter-spacing:-0.01em;}.cls-119{letter-spacing:-0.01em;}.cls-120{letter-spacing:0em;}.cls-121{fill:url(#Degradado_sin_nombre_2-31);}.cls-122{filter:url(#filter-6);}.cls-123{fill:url(#Degradado_sin_nombre_2-32);}.cls-124{fill:url(#Degradado_sin_nombre_2-33);}</style><radialGradient id="Degradado_sin_nombre_7" cx="313.87" cy="510.35" r="52.17" gradientTransform="translate(0 173.18) scale(1 0.12)" gradientUnits="userSpaceOnUse"><stop offset="0" stop-color="#9a9a9a"/><stop offset="0.16" stop-color="#9d9d9d" stop-opacity="0.97"/><stop offset="0.32" stop-color="#a4a4a4" stop-opacity="0.9"/><stop offset="0.49" stop-color="#b1b1b1" stop-opacity="0.77"/><stop offset="0.65" stop-color="#c4c4c4" stop-opacity="0.59"/><stop offset="0.81" stop-color="#dbdbdb" stop-opacity="0.36"/><stop offset="0.96" stop-color="#f8f8f8" stop-opacity="0.07"/><stop offset="1" stop-color="#fff" stop-opacity="0"/></radialGradient><linearGradient id="Degradado_sin_nombre_6" x1="-183.87" y1="26.09" x2="-183.87" y2="229.76" gradientTransform="translate(495)" gradientUnits="userSpaceOnUse"><stop offset="0" stop-color="#5c5c5c"/><stop offset="0.01" stop-color="#565656"/><stop offset="0.08" stop-color="#3b3b3b"/><stop offset="0.17" stop-color="#252525"/><stop offset="0.26" stop-color="#141414"/><stop offset="0.38" stop-color="#090909"/><stop offset="0.54" stop-color="#020202"/><stop offset="1"/></linearGradient><linearGradient id="Degradado_sin_nombre_3" x1="-183.87" y1="27.17" x2="-183.87" y2="159.38" gradientTransform="translate(495)" gradientUnits="userSpaceOnUse"><stop offset="0" stop-color="#6c24ff"/><stop offset="0.24" stop-color="#7c2fff"/><stop offset="0.7" stop-color="#a54cff"/><stop offset="1" stop-color="#c462ff"/></linearGradient><radialGradient id="Degradado_sin_nombre_173" cx="-205.2" cy="103.17" r="77.35" gradientTransform="translate(495 -43.88) scale(1 1.43)" gradientUnits="userSpaceOnUse"><stop offset="0" stop-color="#fff"/><stop offset="0.09" stop-color="#fff" stop-opacity="0.84"/><stop offset="0.23" stop-color="#fff" stop-opacity="0.62"/><stop offset="0.36" stop-color="#fff" stop-opacity="0.43"/><stop offset="0.5" stop-color="#fff" stop-opacity="0.27"/><stop offset="0.63" stop-color="#fff" stop-opacity="0.15"/><stop offset="0.76" stop-color="#fff" stop-opacity="0.07"/><stop offset="0.89" stop-color="#fff" stop-opacity="0.02"/><stop offset="1" stop-color="#fff" stop-opacity="0"/></radialGradient><linearGradient id="Degradado_sin_nombre_2" x1="-154.02" y1="55.05" x2="-154.02" y2="65.54" gradientTransform="translate(495)" gradientUnits="userSpaceOnUse"><stop offset="0" stop-color="#c462ff"/><stop offset="0.3" stop-color="#a54cff"/><stop offset="0.76" stop-color="#7c2fff"/><stop offset="1" stop-color="#6c24ff"/></linearGradient><clipPath id="clip-path"><rect class="cls-1" x="278.56" y="145.01" width="15.96" height="17.18" rx="3.41"/></clipPath><clipPath id="clip-path-2"><rect class="cls-1" x="278.56" y="120.01" width="15.96" height="17.18" rx="3.41"/></clipPath><clipPath id="clip-path-3"><rect class="cls-1" x="278.56" y="167.75" width="15.96" height="17.18" rx="3.41"/></clipPath><linearGradient id="Degradado_sin_nombre_2-2" x1="311.82" y1="197.89" x2="311.82" y2="206.3" gradientTransform="matrix(1, 0, 0, 1, 0, 0)" xlink:href="#Degradado_sin_nombre_2"/><linearGradient id="Degradado_sin_nombre_2-3" x1="296.38" y1="197.89" x2="296.38" y2="206.3" gradientTransform="matrix(1, 0, 0, 1, 0, 0)" xlink:href="#Degradado_sin_nombre_2"/><linearGradient id="Degradado_sin_nombre_2-4" x1="279.62" y1="198.37" x2="279.62" y2="207.24" gradientTransform="matrix(1, 0, 0, 1, 0, 0)" xlink:href="#Degradado_sin_nombre_2"/><linearGradient id="Degradado_sin_nombre_2-5" x1="279.64" y1="198.37" x2="279.64" y2="207.24" gradientTransform="matrix(1, 0, 0, 1, 0, 0)" xlink:href="#Degradado_sin_nombre_2"/><linearGradient id="Degradado_sin_nombre_2-6" x1="326.96" y1="197.9" x2="326.96" y2="206.3" gradientTransform="matrix(1, 0, 0, 1, 0, 0)" xlink:href="#Degradado_sin_nombre_2"/><linearGradient id="Degradado_sin_nombre_2-7" x1="326.95" y1="197.89" x2="326.95" y2="206.3" gradientTransform="matrix(1, 0, 0, 1, 0, 0)" xlink:href="#Degradado_sin_nombre_2"/><linearGradient id="Degradado_sin_nombre_2-8" x1="342.33" y1="197.89" x2="342.33" y2="206.3" gradientTransform="matrix(1, 0, 0, 1, 0, 0)" xlink:href="#Degradado_sin_nombre_2"/><linearGradient id="Degradado_sin_nombre_2-9" x1="345.84" y1="197.89" x2="345.84" y2="206.3" gradientTransform="matrix(1, 0, 0, 1, 0, 0)" xlink:href="#Degradado_sin_nombre_2"/><linearGradient id="Degradado_sin_nombre_2-10" x1="343.34" y1="197.89" x2="343.34" y2="206.3" gradientTransform="matrix(1, 0, 0, 1, 0, 0)" xlink:href="#Degradado_sin_nombre_2"/><linearGradient id="Degradado_sin_nombre_10" x1="304.98" y1="108.27" x2="392.92" y2="108.27" gradientUnits="userSpaceOnUse"><stop offset="0" stop-color="#5b5567"/><stop offset="0.13" stop-color="#4f495b"/><stop offset="0.47" stop-color="#352f41"/><stop offset="0.77" stop-color="#252031"/><stop offset="1" stop-color="#1f1a2b"/></linearGradient><filter id="filter" x="297.32" y="87.79" width="107.76" height="47.52" filterUnits="userSpaceOnUse"><feOffset dx="2.14" dy="3.2" input="SourceAlpha"/><feGaussianBlur stdDeviation="3.2" result="blur"/><feFlood flood-color="#bbb6bc"/><feComposite operator="in" in2="blur"/><feComposite in="SourceGraphic"/></filter><linearGradient id="Degradado_sin_nombre_46" x1="384.11" y1="106.74" x2="384.11" y2="98.28" gradientUnits="userSpaceOnUse"><stop offset="0" stop-color="#6c24ff"/><stop offset="1" stop-color="#c462ff"/></linearGradient><linearGradient id="Degradado_sin_nombre_46-2" x1="384.11" y1="118.94" x2="384.11" y2="110.48" xlink:href="#Degradado_sin_nombre_46"/><clipPath id="clip-path-4"><rect class="cls-1" x="308.45" y="97.44" width="19.88" height="21.39" rx="4.25"/></clipPath><linearGradient id="Degradado_sin_nombre_3-2" x1="319.85" y1="117.9" x2="319.85" y2="103.46" gradientTransform="matrix(1, 0, 0, 1, 0, 0)" xlink:href="#Degradado_sin_nombre_3"/><linearGradient id="Degradado_sin_nombre_3-3" x1="312.8" y1="117.9" x2="312.8" y2="103.46" gradientTransform="matrix(1, 0, 0, 1, 0, 0)" xlink:href="#Degradado_sin_nombre_3"/><linearGradient id="Degradado_sin_nombre_10-2" x1="304.98" y1="146.43" x2="392.92" y2="146.43" xlink:href="#Degradado_sin_nombre_10"/><filter id="filter-2" x="297.32" y="125.47" width="107.76" height="48.72" filterUnits="userSpaceOnUse"><feOffset dx="2.14" dy="3.2" input="SourceAlpha"/><feGaussianBlur stdDeviation="3.2" result="blur-2"/><feFlood flood-color="#bbb6bc"/><feComposite operator="in" in2="blur-2"/><feComposite in="SourceGraphic"/></filter><clipPath id="clip-path-5"><rect class="cls-1" x="308.45" y="135.08" width="19.88" height="21.39" rx="4.25"/></clipPath><linearGradient id="Degradado_sin_nombre_2-11" x1="318.39" y1="138.04" x2="318.39" y2="162.01" gradientTransform="matrix(1, 0, 0, 1, 0, 0)" xlink:href="#Degradado_sin_nombre_2"/><linearGradient id="Degradado_sin_nombre_46-3" x1="374.54" y1="154.99" x2="374.54" y2="144.54" xlink:href="#Degradado_sin_nombre_46"/><linearGradient id="Degradado_sin_nombre_9" x1="-402.88" y1="26.09" x2="-402.88" y2="229.76" gradientTransform="translate(495)" gradientUnits="userSpaceOnUse"><stop offset="0" stop-color="#5c5c5c"/><stop offset="0.28" stop-color="#383838"/><stop offset="0.57" stop-color="#191919"/><stop offset="0.82" stop-color="#070707"/><stop offset="1"/></linearGradient><linearGradient id="Degradado_sin_nombre_3-4" x1="-402.88" y1="27.46" x2="-402.88" y2="184.14" xlink:href="#Degradado_sin_nombre_3"/><linearGradient id="Degradado_sin_nombre_2-12" x1="-376.33" y1="58.45" x2="-376.33" y2="68.08" xlink:href="#Degradado_sin_nombre_2"/><clipPath id="clip-path-6"><rect class="cls-1" x="63.13" y="77.6" width="15.96" height="17.18" rx="3.41"/></clipPath><linearGradient id="Degradado_sin_nombre_3-5" x1="72.29" y1="94.03" x2="72.29" y2="82.44" gradientTransform="matrix(1, 0, 0, 1, 0, 0)" xlink:href="#Degradado_sin_nombre_3"/><linearGradient id="Degradado_sin_nombre_3-6" x1="66.63" y1="94.03" x2="66.63" y2="82.44" gradientTransform="matrix(1, 0, 0, 1, 0, 0)" xlink:href="#Degradado_sin_nombre_3"/><clipPath id="clip-path-7"><rect class="cls-1" x="83.83" y="77.6" width="15.96" height="17.18" rx="3.41"/></clipPath><linearGradient id="Degradado_sin_nombre_3-7" x1="92.99" y1="94.03" x2="92.99" y2="82.44" gradientTransform="matrix(1, 0, 0, 1, 0, 0)" xlink:href="#Degradado_sin_nombre_3"/><linearGradient id="Degradado_sin_nombre_3-8" x1="87.33" y1="94.03" x2="87.33" y2="82.44" gradientTransform="matrix(1, 0, 0, 1, 0, 0)" xlink:href="#Degradado_sin_nombre_3"/><clipPath id="clip-path-8"><rect class="cls-1" x="104.53" y="77.6" width="15.96" height="17.18" rx="3.41"/></clipPath><linearGradient id="Degradado_sin_nombre_3-9" x1="113.69" y1="94.03" x2="113.69" y2="82.44" gradientTransform="matrix(1, 0, 0, 1, 0, 0)" xlink:href="#Degradado_sin_nombre_3"/><linearGradient id="Degradado_sin_nombre_3-10" x1="108.03" y1="94.03" x2="108.03" y2="82.44" gradientTransform="matrix(1, 0, 0, 1, 0, 0)" xlink:href="#Degradado_sin_nombre_3"/><clipPath id="clip-path-9"><rect class="cls-1" x="63.13" y="101.55" width="15.96" height="17.18" rx="3.41"/></clipPath><linearGradient id="Degradado_sin_nombre_3-11" x1="72.29" y1="117.98" x2="72.29" y2="106.39" gradientTransform="matrix(1, 0, 0, 1, 0, 0)" xlink:href="#Degradado_sin_nombre_3"/><linearGradient id="Degradado_sin_nombre_3-12" x1="66.63" y1="117.98" x2="66.63" y2="106.39" gradientTransform="matrix(1, 0, 0, 1, 0, 0)" xlink:href="#Degradado_sin_nombre_3"/><clipPath id="clip-path-10"><rect class="cls-1" x="83.83" y="101.55" width="15.96" height="17.18" rx="3.41"/></clipPath><linearGradient id="Degradado_sin_nombre_3-13" x1="92.99" y1="117.98" x2="92.99" y2="106.39" gradientTransform="matrix(1, 0, 0, 1, 0, 0)" xlink:href="#Degradado_sin_nombre_3"/><linearGradient id="Degradado_sin_nombre_3-14" x1="87.33" y1="117.98" x2="87.33" y2="106.39" gradientTransform="matrix(1, 0, 0, 1, 0, 0)" xlink:href="#Degradado_sin_nombre_3"/><clipPath id="clip-path-11"><rect class="cls-1" x="104.53" y="101.55" width="15.96" height="17.18" rx="3.41"/></clipPath><linearGradient id="Degradado_sin_nombre_3-15" x1="113.69" y1="117.98" x2="113.69" y2="106.39" gradientTransform="matrix(1, 0, 0, 1, 0, 0)" xlink:href="#Degradado_sin_nombre_3"/><linearGradient id="Degradado_sin_nombre_3-16" x1="108.03" y1="117.98" x2="108.03" y2="106.39" gradientTransform="matrix(1, 0, 0, 1, 0, 0)" xlink:href="#Degradado_sin_nombre_3"/><linearGradient id="Degradado_sin_nombre_2-13" x1="93.21" y1="38.24" x2="93.21" y2="46.91" gradientTransform="matrix(1, 0, 0, 1, 0, 0)" xlink:href="#Degradado_sin_nombre_2"/><linearGradient id="Degradado_sin_nombre_2-14" x1="93.21" y1="38.24" x2="93.21" y2="46.91" gradientTransform="matrix(1, 0, 0, 1, 0, 0)" xlink:href="#Degradado_sin_nombre_2"/><linearGradient id="Degradado_sin_nombre_2-15" x1="92.35" y1="172.94" x2="92.35" y2="196.84" gradientTransform="matrix(1, 0, 0, 1, 0, 0)" xlink:href="#Degradado_sin_nombre_2"/><linearGradient id="Degradado_sin_nombre_2-16" x1="93.86" y1="200.81" x2="93.86" y2="209.22" gradientTransform="matrix(1, 0, 0, 1, 0, 0)" xlink:href="#Degradado_sin_nombre_2"/><linearGradient id="Degradado_sin_nombre_2-17" x1="78.42" y1="200.81" x2="78.42" y2="209.22" gradientTransform="matrix(1, 0, 0, 1, 0, 0)" xlink:href="#Degradado_sin_nombre_2"/><linearGradient id="Degradado_sin_nombre_2-18" x1="61.65" y1="201.29" x2="61.65" y2="210.15" gradientTransform="matrix(1, 0, 0, 1, 0, 0)" xlink:href="#Degradado_sin_nombre_2"/><linearGradient id="Degradado_sin_nombre_2-19" x1="61.68" y1="201.29" x2="61.68" y2="210.15" gradientTransform="matrix(1, 0, 0, 1, 0, 0)" xlink:href="#Degradado_sin_nombre_2"/><linearGradient id="Degradado_sin_nombre_2-20" x1="109" y1="200.81" x2="109" y2="209.22" gradientTransform="matrix(1, 0, 0, 1, 0, 0)" xlink:href="#Degradado_sin_nombre_2"/><linearGradient id="Degradado_sin_nombre_2-21" x1="108.98" y1="200.81" x2="108.98" y2="209.22" gradientTransform="matrix(1, 0, 0, 1, 0, 0)" xlink:href="#Degradado_sin_nombre_2"/><linearGradient id="Degradado_sin_nombre_2-22" x1="124.37" y1="200.81" x2="124.37" y2="209.22" gradientTransform="matrix(1, 0, 0, 1, 0, 0)" xlink:href="#Degradado_sin_nombre_2"/><linearGradient id="Degradado_sin_nombre_2-23" x1="127.88" y1="200.81" x2="127.88" y2="209.22" gradientTransform="matrix(1, 0, 0, 1, 0, 0)" xlink:href="#Degradado_sin_nombre_2"/><linearGradient id="Degradado_sin_nombre_2-24" x1="125.38" y1="200.81" x2="125.38" y2="209.22" gradientTransform="matrix(1, 0, 0, 1, 0, 0)" xlink:href="#Degradado_sin_nombre_2"/><radialGradient id="Degradado_sin_nombre_173-2" cx="-424.2" cy="103.17" r="77.35" xlink:href="#Degradado_sin_nombre_173"/><radialGradient id="Degradado_sin_nombre_7-2" cx="91.53" cy="509.92" r="52.17" gradientTransform="translate(0 172.58) scale(1 0.12)" xlink:href="#Degradado_sin_nombre_7"/><filter id="filter-3" x="0" y="120.47" width="107.52" height="44.16" filterUnits="userSpaceOnUse"><feOffset dx="1.97" dy="2.95" input="SourceAlpha"/><feGaussianBlur stdDeviation="2.95" result="blur-3"/><feFlood flood-color="#bbb6bc"/><feComposite operator="in" in2="blur-3"/><feComposite in="SourceGraphic"/></filter><linearGradient id="Degradado_sin_nombre_2-25" x1="14.66" y1="126.09" x2="14.66" y2="157.85" gradientTransform="matrix(1, 0, 0, 1, 0, 0)" xlink:href="#Degradado_sin_nombre_2"/><linearGradient id="Degradado_sin_nombre_2-26" x1="55.43" y1="133.64" x2="55.43" y2="152.21" gradientTransform="matrix(1, 0, 0, 1, 0, 0)" xlink:href="#Degradado_sin_nombre_2"/><linearGradient id="Degradado_sin_nombre_2-27" x1="87.87" y1="133.64" x2="87.87" y2="152.21" gradientTransform="matrix(1, 0, 0, 1, 0, 0)" xlink:href="#Degradado_sin_nombre_2"/><clipPath id="clip-path-12"><rect class="cls-1" x="8.23" y="131.89" width="12.31" height="13.25" rx="2.63"/></clipPath><linearGradient id="Degradado_sin_nombre_3-17" x1="15.3" y1="144.56" x2="15.3" y2="135.62" gradientTransform="matrix(1, 0, 0, 1, 0, 0)" xlink:href="#Degradado_sin_nombre_3"/><linearGradient id="Degradado_sin_nombre_3-18" x1="10.93" y1="144.56" x2="10.93" y2="135.62" gradientTransform="matrix(1, 0, 0, 1, 0, 0)" xlink:href="#Degradado_sin_nombre_3"/><radialGradient id="Degradado_sin_nombre_7-3" cx="206.96" cy="542.73" r="57.59" gradientTransform="translate(0 219.17) scale(1 0.12)" xlink:href="#Degradado_sin_nombre_7"/><linearGradient id="Degradado_sin_nombre_6-2" x1="202.35" y1="54.72" x2="202.35" y2="281.85" gradientTransform="matrix(1, 0, 0, 1, 0, 0)" xlink:href="#Degradado_sin_nombre_6"/><linearGradient id="Degradado_sin_nombre_5" x1="202.36" y1="123.19" x2="202.36" y2="225.01" gradientUnits="userSpaceOnUse"><stop offset="0" stop-color="#d9dadf"/><stop offset="0.3" stop-color="#dfe0e5"/><stop offset="1" stop-color="#eaecf1"/></linearGradient><linearGradient id="Degradado_sin_nombre_3-19" x1="202.36" y1="55.29" x2="202.36" y2="149.9" gradientTransform="matrix(1, 0, 0, 1, 0, 0)" xlink:href="#Degradado_sin_nombre_3"/><radialGradient id="Degradado_sin_nombre_173-3" cx="178.57" cy="140.68" r="86.26" gradientTransform="translate(0 -59.84) scale(1 1.43)" xlink:href="#Degradado_sin_nombre_173"/><linearGradient id="Degradado_sin_nombre_3-20" x1="202.43" y1="87.59" x2="202.43" y2="102.94" gradientTransform="matrix(1, 0, 0, 1, 0, 0)" xlink:href="#Degradado_sin_nombre_3"/><linearGradient id="Degradado_sin_nombre_2-28" x1="202.43" y1="87.59" x2="202.43" y2="107.42" gradientTransform="matrix(1, 0, 0, 1, 0, 0)" xlink:href="#Degradado_sin_nombre_2"/><linearGradient id="Degradado_sin_nombre_2-29" x1="202.84" y1="221.24" x2="202.84" y2="234.28" gradientTransform="matrix(1, 0, 0, 1, 0, 0)" xlink:href="#Degradado_sin_nombre_2"/><filter id="filter-4" x="158.64" y="125.03" width="91.68" height="36.96" filterUnits="userSpaceOnUse"><feOffset dx="1.97" dy="2.95" input="SourceAlpha"/><feGaussianBlur stdDeviation="2.95" result="blur-4"/><feFlood flood-color="#bbb6bc"/><feComposite operator="in" in2="blur-4"/><feComposite in="SourceGraphic"/></filter><linearGradient id="Degradado_sin_nombre_2-30" x1="174.91" y1="133.82" x2="174.91" y2="146.49" gradientTransform="matrix(1, 0, 0, 1, 0, 0)" xlink:href="#Degradado_sin_nombre_2"/><filter id="filter-5" x="158.64" y="149.99" width="91.68" height="36.96" filterUnits="userSpaceOnUse"><feOffset dx="1.97" dy="2.95" input="SourceAlpha"/><feGaussianBlur stdDeviation="2.95" result="blur-5"/><feFlood flood-color="#bbb6bc"/><feComposite operator="in" in2="blur-5"/><feComposite in="SourceGraphic"/></filter><linearGradient id="Degradado_sin_nombre_2-31" x1="174.91" y1="158.62" x2="174.91" y2="171.3" gradientTransform="matrix(1, 0, 0, 1, 0, 0)" xlink:href="#Degradado_sin_nombre_2"/><filter id="filter-6" x="158.64" y="174.95" width="91.68" height="36.72" filterUnits="userSpaceOnUse"><feOffset dx="1.97" dy="2.95" input="SourceAlpha"/><feGaussianBlur stdDeviation="2.95" result="blur-6"/><feFlood flood-color="#bbb6bc"/><feComposite operator="in" in2="blur-6"/><feComposite in="SourceGraphic"/></filter><linearGradient id="Degradado_sin_nombre_2-32" x1="174.91" y1="183.53" x2="174.91" y2="196.21" gradientTransform="matrix(1, 0, 0, 1, 0, 0)" xlink:href="#Degradado_sin_nombre_2"/><linearGradient id="Degradado_sin_nombre_2-33" x1="174.75" y1="207.7" x2="174.75" y2="217.49" gradientTransform="matrix(1, 0, 0, 1, 0, 0)" xlink:href="#Degradado_sin_nombre_2"/></defs><g class="cls-2"><g id="Capa_1" data-name="Capa 1"><g class="cls-3"><path class="cls-4" d="M62.63,20.83h-.69A2.27,2.27,0,0,1,60.33,17l.49-.49a2.26,2.26,0,0,0,0-3.21L59,11.42a2.29,2.29,0,0,0-3.22,0l-.48.49a2.27,2.27,0,0,1-3.88-1.6V9.62a2.27,2.27,0,0,0-2.27-2.27H46.55a2.27,2.27,0,0,0-2.28,2.27v.69a2.27,2.27,0,0,1-3.87,1.6l-.49-.49a2.28,2.28,0,0,0-3.21,0l-1.84,1.84a2.28,2.28,0,0,0,0,3.21l.49.49a2.27,2.27,0,0,1-1.6,3.87h-.69a2.27,2.27,0,0,0-2.27,2.28V25.7A2.27,2.27,0,0,0,33.06,28h.69a2.27,2.27,0,0,1,1.6,3.88l-.49.48a2.29,2.29,0,0,0,0,3.22l1.84,1.83a2.26,2.26,0,0,0,3.21,0l.49-.49a2.27,2.27,0,0,1,3.87,1.61v.69a2.28,2.28,0,0,0,2.28,2.27h2.59a2.27,2.27,0,0,0,2.27-2.27V38.5a2.27,2.27,0,0,1,3.88-1.61l.48.49a2.28,2.28,0,0,0,3.22,0l1.83-1.83a2.28,2.28,0,0,0,0-3.22l-.49-.48A2.27,2.27,0,0,1,61.94,28h.69A2.27,2.27,0,0,0,64.9,25.7V23.11A2.28,2.28,0,0,0,62.63,20.83ZM47.84,30.48a6.08,6.08,0,1,1,6.08-6.08A6.08,6.08,0,0,1,47.84,30.48Z"/></g><g class="cls-5"><path class="cls-6" d="M370.13,21.33h-.69a2.27,2.27,0,0,1-1.61-3.87l.49-.49a2.26,2.26,0,0,0,0-3.21l-1.83-1.84a2.29,2.29,0,0,0-3.22,0l-.48.49a2.27,2.27,0,0,1-3.88-1.6v-.69a2.27,2.27,0,0,0-2.27-2.27h-2.59a2.27,2.27,0,0,0-2.28,2.27v.69a2.27,2.27,0,0,1-3.87,1.6l-.49-.49a2.28,2.28,0,0,0-3.21,0l-1.84,1.84a2.28,2.28,0,0,0,0,3.21l.49.49a2.27,2.27,0,0,1-1.6,3.87h-.69a2.27,2.27,0,0,0-2.27,2.28V26.2a2.27,2.27,0,0,0,2.27,2.27h.69a2.27,2.27,0,0,1,1.6,3.88l-.49.48a2.29,2.29,0,0,0,0,3.22l1.84,1.83a2.26,2.26,0,0,0,3.21,0l.49-.49A2.27,2.27,0,0,1,351.77,39v.69A2.28,2.28,0,0,0,354.05,42h2.59a2.27,2.27,0,0,0,2.27-2.27V39a2.27,2.27,0,0,1,3.88-1.61l.48.49a2.28,2.28,0,0,0,3.22,0l1.83-1.83a2.28,2.28,0,0,0,0-3.22l-.49-.48a2.27,2.27,0,0,1,1.61-3.88h.69a2.27,2.27,0,0,0,2.27-2.27V23.61A2.28,2.28,0,0,0,370.13,21.33ZM355.34,31a6.08,6.08,0,1,1,6.08-6.08A6.08,6.08,0,0,1,355.34,31Z"/></g><rect class="cls-7" x="369.91" y="183.71" width="6.97" height="5.76"/><rect class="cls-7" x="369.91" y="191.44" width="6.97" height="5.76"/><rect class="cls-7" x="369.91" y="199.16" width="6.97" height="5.76"/><rect class="cls-7" x="369.91" y="206.89" width="6.97" height="5.76"/><rect class="cls-7" x="369.91" y="214.61" width="6.97" height="5.76"/><rect class="cls-8" x="31.53" y="174.04" width="6.97" height="5.76"/><rect class="cls-8" x="31.53" y="181.76" width="6.97" height="5.76"/><rect class="cls-8" x="31.53" y="189.49" width="6.97" height="5.76"/><rect class="cls-8" x="31.53" y="197.21" width="6.97" height="5.76"/><rect class="cls-8" x="31.53" y="204.94" width="6.97" height="5.76"/><rect class="cls-8" x="137.45" y="8.37" width="6.97" height="5.76" transform="translate(129.68 152.18) rotate(-90)"/><rect class="cls-8" x="145.17" y="8.37" width="6.97" height="5.76" transform="translate(137.41 159.9) rotate(-90)"/><rect class="cls-8" x="152.9" y="8.37" width="6.97" height="5.76" transform="translate(145.13 167.63) rotate(-90)"/><rect class="cls-8" x="160.62" y="8.37" width="6.97" height="5.76" transform="translate(152.86 175.35) rotate(-90)"/><rect class="cls-8" x="168.35" y="8.37" width="6.97" height="5.76" transform="translate(160.58 183.08) rotate(-90)"/><ellipse class="cls-9" cx="313.87" cy="233.44" rx="73.52" ry="9.61"/><path class="cls-10" d="M356.88,58.75h22.77a7.48,7.48,0,0,1,7.48,7.48V164.4a7.47,7.47,0,0,1-7.48,7.47H357.12"/><path class="cls-11" d="M274.25,22.8H348a9.55,9.55,0,0,1,9.55,9.55V209a9.19,9.19,0,0,1-9.19,9.19H273.89A9.19,9.19,0,0,1,264.7,209V32.36a9.55,9.55,0,0,1,9.55-9.55Z"/><path class="cls-4" d="M276.63,214.45a8.67,8.67,0,0,1-8.66-8.66V34.25a8.67,8.67,0,0,1,8.66-8.66h12.85v3.74a3,3,0,0,0,3,3h37.24a3,3,0,0,0,3-3V25.59h12.85a8.67,8.67,0,0,1,8.66,8.66V205.79a8.67,8.67,0,0,1-8.66,8.66Z"/><path class="cls-12" d="M354.29,112.24v-78a8.67,8.67,0,0,0-8.66-8.66H332.78v3.74a3,3,0,0,1-3,3H292.51a3,3,0,0,1-3-3V25.59H276.63A8.67,8.67,0,0,0,268,34.25v78Z"/><path class="cls-13" d="M348,22.8H276.18l81.38,175.35V32.36A9.56,9.56,0,0,0,348,22.8Z"/><circle class="cls-14" cx="355.65" cy="171.71" r="3.27"/><path class="cls-15" d="M357.13,171.71a1.48,1.48,0,1,1-1.48-1.48A1.49,1.49,0,0,1,357.13,171.71Z"/><path class="cls-16" d="M345.51,40.35h-.16a.51.51,0,0,1-.36-.88l.11-.11a.52.52,0,0,0,0-.73l-.42-.42a.51.51,0,0,0-.72,0l-.12.11A.51.51,0,0,1,343,38V37.8a.51.51,0,0,0-.51-.51h-.59a.51.51,0,0,0-.51.51V38a.51.51,0,0,1-.88.36l-.11-.11a.52.52,0,0,0-.73,0l-.42.42a.52.52,0,0,0,0,.73l.11.11a.51.51,0,0,1-.36.88h-.16a.52.52,0,0,0-.52.51v.59a.53.53,0,0,0,.52.52H339a.51.51,0,0,1,.36.88l-.11.11a.51.51,0,0,0,0,.72l.42.42a.52.52,0,0,0,.73,0l.11-.11a.52.52,0,0,1,.88.36v.16a.51.51,0,0,0,.51.52h.59a.51.51,0,0,0,.51-.52v-.16a.52.52,0,0,1,.88-.36l.12.11a.51.51,0,0,0,.72,0l.42-.42a.51.51,0,0,0,0-.72l-.11-.11a.52.52,0,0,1,.36-.88h.16a.52.52,0,0,0,.52-.52v-.59A.51.51,0,0,0,345.51,40.35Zm-3.35,2.18a1.38,1.38,0,1,1,1.37-1.37A1.37,1.37,0,0,1,342.16,42.53Z"/><rect class="cls-16" x="274.13" y="36.91" width="9.2" height="1.35"/><rect class="cls-16" x="274.13" y="39.79" width="9.2" height="1.35"/><rect class="cls-16" x="274.13" y="42.68" width="9.2" height="1.35"/><rect class="cls-4" x="277.03" y="51.99" width="71.55" height="15" rx="7.5"/><path class="cls-17" d="M346.14,59.49A5.16,5.16,0,1,1,341,54.33,5.16,5.16,0,0,1,346.14,59.49Z"/><path class="cls-4" d="M343.65,61.41l-1.24-1.24a2.33,2.33,0,1,0-.65.65L343,62.06a.46.46,0,0,0,.33.13.45.45,0,0,0,.32-.13A.46.46,0,0,0,343.65,61.41Zm-4.51-2.48a1.36,1.36,0,1,1,1.36,1.36A1.36,1.36,0,0,1,339.14,58.93Z"/><text class="cls-18" transform="translate(285.01 60.62)"><tspan class="cls-19">S</tspan><tspan x="1.83" y="0">ea</tspan><tspan class="cls-20" x="5.42" y="0">r</tspan><tspan x="6.58" y="0">ch</tspan></text><path class="cls-4" d="M287.44,80.08a4.82,4.82,0,1,1-4.82-4.81A4.81,4.81,0,0,1,287.44,80.08Z"/><rect class="cls-4" x="291.27" y="75.5" width="48.47" height="3.58"/><rect class="cls-4" x="291.27" y="81.09" width="48.47" height="3.58"/><path class="cls-4" d="M344.53,84.19l3.85-3.85a.67.67,0,0,0,0-1l-3.85-3.86a.68.68,0,0,0-1.16.48.66.66,0,0,0,.19.48l3.38,3.38-3.38,3.37a.68.68,0,1,0,1,1Z"/><g class="cls-21"><circle class="cls-4" cx="282.62" cy="95.64" r="4.81"/><rect class="cls-4" x="291.27" y="91.06" width="48.47" height="3.58"/><rect class="cls-4" x="291.27" y="96.65" width="48.47" height="3.58"/></g><g class="cls-22"><rect class="cls-6" x="278.56" y="145.01" width="15.96" height="17.18" rx="3.41"/><g class="cls-23"><path class="cls-4" d="M276,160.74l4.8-4.74a1.13,1.13,0,0,1,1.61,0l2.35,2.52,4.26-5.66a1.19,1.19,0,0,1,1.81-.08l8.76,9.69H275.81Z"/><path class="cls-4" d="M283.92,149.68a1.87,1.87,0,1,1-1.87-1.86A1.87,1.87,0,0,1,283.92,149.68Z"/></g></g><g class="cls-24"><rect class="cls-6" x="278.56" y="120.01" width="15.96" height="17.18" rx="3.41"/><g class="cls-23"><path class="cls-4" d="M276,135.74l4.8-4.74a1.13,1.13,0,0,1,1.61,0l2.35,2.52,4.26-5.66a1.19,1.19,0,0,1,1.81-.08l8.76,9.69H275.81Z"/><path class="cls-4" d="M283.92,124.68a1.87,1.87,0,1,1-1.87-1.86A1.87,1.87,0,0,1,283.92,124.68Z"/></g></g><path class="cls-6" d="M342.69,171.82a3.4,3.4,0,1,1-3.39-3.4A3.4,3.4,0,0,1,342.69,171.82Z"/><path class="cls-6" d="M342.69,181.62a3.4,3.4,0,1,1-3.39-3.4A3.4,3.4,0,0,1,342.69,181.62Z"/><path class="cls-4" d="M340.75,172.18h-1.08v1.06h-.81v-1.06h-1.07v-.76h1.07v-1.06h.81v1.06h1.08Z"/><path class="cls-4" d="M338,181.07h2.56v1.13H338Z"/><g class="cls-25"><rect class="cls-6" x="278.56" y="167.75" width="15.96" height="17.18" rx="3.41"/><g class="cls-23"><path class="cls-4" d="M276,183.49l4.8-4.75a1.13,1.13,0,0,1,1.61,0l2.35,2.52,4.26-5.66a1.17,1.17,0,0,1,1.81-.08l8.76,9.68H275.81Z"/><path class="cls-4" d="M283.92,172.42a1.87,1.87,0,1,1-1.87-1.86A1.87,1.87,0,0,1,283.92,172.42Z"/></g></g><g class="cls-5"><text class="cls-26" transform="translate(298.97 184.09)">$99</text></g><rect class="cls-6" x="298.97" y="169.24" width="29.09" height="3.39"/><rect class="cls-7" x="298.97" y="174.78" width="15.27" height="1.58"/><path class="cls-27" d="M314.3,198.66a3.5,3.5,0,0,0-4.95,5l2.47,2.47,2.48-2.47A3.49,3.49,0,0,0,314.3,198.66Zm-2.54,3.85A1.54,1.54,0,1,1,313.3,201,1.53,1.53,0,0,1,311.76,202.51Z"/><path class="cls-28" d="M300.23,204.65l-1.81-1.81a3.24,3.24,0,0,0,.53-1.79,3.31,3.31,0,1,0-3.31,3.31,3.27,3.27,0,0,0,1.85-.57l1.8,1.8a.65.65,0,0,0,.94,0A.66.66,0,0,0,300.23,204.65Zm-6.56-3.6a2,2,0,1,1,2,2A2,2,0,0,1,293.67,201.05Z"/><path class="cls-29" d="M274.88,201.14h0a.59.59,0,0,1,.22-.82l4.24-2.45a.61.61,0,0,1,.61,0l4.18,2.41a.6.6,0,0,1,.22.82h0a.59.59,0,0,1-.82.22L280,199.26a.61.61,0,0,0-.61,0l-3.64,2.1A.61.61,0,0,1,274.88,201.14Z"/><path class="cls-30" d="M276.48,202.38v2.79a.55.55,0,0,0,.54.55h5.24a.55.55,0,0,0,.55-.55v-2.79a.55.55,0,0,0-.27-.48l-2.62-1.51a.54.54,0,0,0-.55,0l-2.62,1.51A.55.55,0,0,0,276.48,202.38Z"/><path class="cls-31" d="M327,206.12a1,1,0,0,0,1-.92h-2A1,1,0,0,0,327,206.12Z"/><path class="cls-32" d="M330.6,204.07l-.85-1.28v-1.64a2.73,2.73,0,0,0-2.29-2.7v-.69a.52.52,0,1,0-1,0v.71a2.74,2.74,0,0,0-2.15,2.68v1.44l-1,1.48a.38.38,0,0,0,.32.6h6.67A.38.38,0,0,0,330.6,204.07Z"/><path class="cls-33" d="M342.33,203.92a.91.91,0,1,0,.91.91A.9.9,0,0,0,342.33,203.92Z"/><path class="cls-34" d="M345.84,203.92a.91.91,0,1,0,.91.91A.9.9,0,0,0,345.84,203.92Z"/><path class="cls-35" d="M348,199.25a.54.54,0,0,0-.42-.22h-6.76l-.45-1.15a.52.52,0,0,0-.48-.33h-.84a.51.51,0,0,0-.51.51h0a.51.51,0,0,0,.51.51h.5l1.68,4.33a.51.51,0,0,0,.47.33h4.62a.53.53,0,0,0,.48-.32l1.25-3.18A.54.54,0,0,0,348,199.25Z"/><line class="cls-36" x1="276.1" y1="191.9" x2="346.42" y2="191.9"/><rect class="cls-37" x="304.98" y="94.28" width="87.94" height="27.99" rx="5.32"/><path class="cls-38" d="M388.34,102.51a4.24,4.24,0,1,1-4.23-4.23A4.24,4.24,0,0,1,388.34,102.51Z"/><path class="cls-39" d="M388.34,114.71a4.24,4.24,0,1,1-4.23-4.23A4.23,4.23,0,0,1,388.34,114.71Z"/><path class="cls-4" d="M385.91,103h-1.34v1.31h-1V103h-1.34V102h1.34v-1.32h1V102h1.34Z"/><path class="cls-4" d="M382.55,114h3.18v1.41h-3.18Z"/><g class="cls-40"><rect class="cls-4" x="308.45" y="97.44" width="19.88" height="21.39" rx="4.25"/><path class="cls-41" d="M305.3,117l6-5.91a1.4,1.4,0,0,1,2,0l2.94,3.14,5.3-7a1.46,1.46,0,0,1,2.25-.1l10.91,12.06H305Z"/><path class="cls-42" d="M315.12,103.26a2.32,2.32,0,1,1-2.32-2.32A2.32,2.32,0,0,1,315.12,103.26Z"/></g><text class="cls-43" transform="translate(333.88 117.79)">$99</text><rect class="cls-4" x="333.88" y="99.29" width="36.23" height="4.22"/><g class="cls-44"><rect class="cls-4" x="333.88" y="106.2" width="19.02" height="1.97"/></g><rect class="cls-45" x="304.98" y="131.92" width="87.94" height="29.01" rx="5.32"/><text class="cls-43" transform="translate(333.88 155.44)">$99</text><rect class="cls-4" x="333.88" y="136.94" width="36.23" height="4.22"/><g class="cls-44"><rect class="cls-4" x="333.88" y="143.85" width="19.02" height="1.97"/></g><g class="cls-46"><rect class="cls-47" x="308.45" y="135.08" width="19.88" height="21.39" rx="4.25"/></g><path class="cls-4" d="M316.86,148.73A1.18,1.18,0,1,0,318,149.9,1.17,1.17,0,0,0,316.86,148.73Z"/><path class="cls-4" d="M321.41,148.73a1.18,1.18,0,1,0,1.17,1.17A1.17,1.17,0,0,0,321.41,148.73Z"/><path class="cls-4" d="M324.24,142.69a.65.65,0,0,0-.54-.29h-8.76l-.58-1.5a.66.66,0,0,0-.62-.42h-1.1a.67.67,0,0,0-.66.66h0a.66.66,0,0,0,.66.66h.65l2.18,5.61a.66.66,0,0,0,.62.42h6a.64.64,0,0,0,.61-.41l1.63-4.12A.64.64,0,0,0,324.24,142.69Z"/><path class="cls-48" d="M384.15,155.52H364.93a4.21,4.21,0,0,1-4.21-4.2h0a4.22,4.22,0,0,1,4.21-4.21h19.22a4.21,4.21,0,0,1,4.21,4.21h0A4.2,4.2,0,0,1,384.15,155.52Z"/><text class="cls-49" transform="translate(365.12 152.53)">Buy N<tspan class="cls-50" x="10.13" y="0">o</tspan><tspan x="12.38" y="0">w</tspan></text><path class="cls-10" d="M235,55.06V14.25A6.27,6.27,0,0,1,241.38,8h61.06a7.48,7.48,0,0,1,7.48,7.48v7.94"/><path class="cls-14" d="M313.23,23.33A3.28,3.28,0,1,1,310,20.05,3.28,3.28,0,0,1,313.23,23.33Z"/><path class="cls-15" d="M311.44,23.33A1.48,1.48,0,1,1,310,21.85,1.49,1.49,0,0,1,311.44,23.33Z"/><path class="cls-51" d="M55.24,22.8H129a9.55,9.55,0,0,1,9.55,9.55V209a9.19,9.19,0,0,1-9.19,9.19H54.88A9.19,9.19,0,0,1,45.69,209V32.36a9.55,9.55,0,0,1,9.55-9.55Z"/><path class="cls-4" d="M49,39.78v166a8.68,8.68,0,0,0,8.66,8.66h69a8.67,8.67,0,0,0,8.66-8.66v-166Z"/><path class="cls-52" d="M135.28,128.27v-94a8.67,8.67,0,0,0-8.66-8.66H113.77v3.74a3,3,0,0,1-3,3H73.5a3,3,0,0,1-3-3V25.59H57.62A8.68,8.68,0,0,0,49,34.25v94Z"/><path class="cls-4" d="M118.76,69.41H66.86A6.89,6.89,0,0,1,60,62.53h0a6.89,6.89,0,0,1,6.89-6.89h51.9a6.89,6.89,0,0,1,6.89,6.89h0A6.89,6.89,0,0,1,118.76,69.41Z"/><path class="cls-53" d="M123.41,62.53a4.74,4.74,0,1,1-4.74-4.74A4.74,4.74,0,0,1,123.41,62.53Z"/><path class="cls-4" d="M121.12,64.29,120,63.15a2.11,2.11,0,0,0,.33-1.14,2.07,2.07,0,1,0-.92,1.74l1.13,1.13a.41.41,0,0,0,.3.13.39.39,0,0,0,.3-.13A.42.42,0,0,0,121.12,64.29ZM117,62a1.25,1.25,0,1,1,1.25,1.25A1.25,1.25,0,0,1,117,62Z"/><text class="cls-54" transform="translate(67.29 63.57)"><tspan class="cls-55">S</tspan><tspan class="cls-56" x="1.67" y="0">ea</tspan><tspan class="cls-57" x="4.97" y="0">r</tspan><tspan x="6.04" y="0">ch</tspan></text><g class="cls-58"><rect class="cls-4" x="63.13" y="77.6" width="15.96" height="17.18" rx="3.41"/><g class="cls-59"><path class="cls-60" d="M60.6,93.34l4.81-4.75a1.12,1.12,0,0,1,1.6,0l2.36,2.52,4.26-5.66a1.16,1.16,0,0,1,1.8-.08l8.77,9.68H60.38Z"/><path class="cls-61" d="M68.49,82.27a1.86,1.86,0,1,1-1.86-1.86A1.86,1.86,0,0,1,68.49,82.27Z"/></g></g><g class="cls-44"><rect class="cls-4" x="63.62" y="96.32" width="15.27" height="1.58"/></g><g class="cls-62"><rect class="cls-4" x="83.83" y="77.6" width="15.96" height="17.18" rx="3.41"/><g class="cls-59"><path class="cls-63" d="M81.3,93.34l4.81-4.75a1.12,1.12,0,0,1,1.6,0l2.36,2.52,4.26-5.66a1.16,1.16,0,0,1,1.8-.08l8.76,9.68H81.08Z"/><path class="cls-64" d="M89.19,82.27a1.86,1.86,0,1,1-1.86-1.86A1.86,1.86,0,0,1,89.19,82.27Z"/></g></g><g class="cls-44"><rect class="cls-4" x="84.32" y="96.32" width="15.27" height="1.58"/></g><g class="cls-65"><rect class="cls-4" x="104.53" y="77.6" width="15.96" height="17.18" rx="3.41"/><g class="cls-59"><path class="cls-66" d="M102,93.34l4.81-4.75a1.12,1.12,0,0,1,1.6,0l2.36,2.52L115,85.49a1.16,1.16,0,0,1,1.8-.08l8.76,9.68H101.78Z"/><path class="cls-67" d="M109.89,82.27A1.86,1.86,0,1,1,108,80.41,1.86,1.86,0,0,1,109.89,82.27Z"/></g></g><g class="cls-44"><rect class="cls-4" x="105.02" y="96.32" width="15.27" height="1.58"/></g><g class="cls-68"><rect class="cls-4" x="63.13" y="101.55" width="15.96" height="17.18" rx="3.41"/><g class="cls-59"><path class="cls-69" d="M60.6,117.29l4.81-4.74a1.12,1.12,0,0,1,1.6,0l2.36,2.52,4.26-5.66a1.16,1.16,0,0,1,1.8-.08L84.2,119H60.38Z"/><path class="cls-70" d="M68.49,106.23a1.86,1.86,0,1,1-1.86-1.87A1.86,1.86,0,0,1,68.49,106.23Z"/></g></g><g class="cls-44"><rect class="cls-4" x="63.62" y="120.27" width="15.27" height="1.58"/></g><g class="cls-71"><rect class="cls-4" x="83.83" y="101.55" width="15.96" height="17.18" rx="3.41"/><g class="cls-59"><path class="cls-72" d="M81.3,117.29l4.81-4.74a1.12,1.12,0,0,1,1.6,0l2.36,2.52,4.26-5.66a1.16,1.16,0,0,1,1.8-.08l8.76,9.68H81.08Z"/><path class="cls-73" d="M89.19,106.23a1.86,1.86,0,1,1-1.86-1.87A1.86,1.86,0,0,1,89.19,106.23Z"/></g></g><g class="cls-44"><rect class="cls-4" x="84.32" y="120.27" width="15.27" height="1.58"/></g><g class="cls-74"><rect class="cls-4" x="104.53" y="101.55" width="15.96" height="17.18" rx="3.41"/><g class="cls-59"><path class="cls-75" d="M102,117.29l4.81-4.74a1.12,1.12,0,0,1,1.6,0l2.36,2.52,4.26-5.66a1.16,1.16,0,0,1,1.8-.08l8.76,9.68H101.78Z"/><path class="cls-76" d="M109.89,106.23a1.86,1.86,0,1,1-1.86-1.87A1.86,1.86,0,0,1,109.89,106.23Z"/></g></g><g class="cls-44"><rect class="cls-4" x="105.02" y="120.27" width="15.27" height="1.58"/></g><path class="cls-4" d="M127.62,104.33l3.86-3.86a.67.67,0,0,0,0-1l-3.86-3.85a.68.68,0,0,0-1.16.48.69.69,0,0,0,.2.48L130,100l-3.38,3.38a.69.69,0,0,0,0,1A.67.67,0,0,0,127.62,104.33Z"/><path class="cls-4" d="M57.27,104.33l-3.86-3.86a.69.69,0,0,1,0-1l3.86-3.85a.68.68,0,0,1,1.16.48.69.69,0,0,1-.2.48L54.86,100l3.37,3.38a.68.68,0,0,1-1,1Z"/><path class="cls-16" d="M126.5,40h-.15a.52.52,0,0,1-.37-.88l.11-.11a.5.5,0,0,0,0-.73l-.41-.42a.52.52,0,0,0-.73,0l-.11.11a.51.51,0,0,1-.88-.36v-.16a.51.51,0,0,0-.52-.51h-.58a.51.51,0,0,0-.52.51v.16a.51.51,0,0,1-.88.36l-.11-.11a.52.52,0,0,0-.73,0l-.42.42a.52.52,0,0,0,0,.73l.12.11A.52.52,0,0,1,120,40h-.16a.51.51,0,0,0-.51.51v.59a.51.51,0,0,0,.51.52H120a.52.52,0,0,1,.37.88l-.12.11a.52.52,0,0,0,0,.73l.42.41a.52.52,0,0,0,.73,0l.11-.11a.52.52,0,0,1,.88.37v.15a.52.52,0,0,0,.52.52h.58a.52.52,0,0,0,.52-.52V44a.52.52,0,0,1,.88-.37l.11.11a.52.52,0,0,0,.73,0l.41-.41a.5.5,0,0,0,0-.73l-.11-.11a.52.52,0,0,1,.37-.88h.15a.52.52,0,0,0,.52-.52v-.59A.51.51,0,0,0,126.5,40Zm-3.35,2.19a1.38,1.38,0,1,1,1.38-1.38A1.38,1.38,0,0,1,123.15,42.16Z"/><rect class="cls-16" x="55.12" y="36.91" width="9.2" height="1.35"/><rect class="cls-16" x="55.12" y="39.79" width="9.2" height="1.35"/><rect class="cls-16" x="55.12" y="42.68" width="9.2" height="1.35"/><path class="cls-4" d="M99.09,42.87a6,6,0,1,1-6-6A6,6,0,0,1,99.09,42.87Z"/><path class="cls-77" d="M93.21,42.33A1.2,1.2,0,1,0,92,41.13,1.2,1.2,0,0,0,93.21,42.33Z"/><path class="cls-78" d="M95.7,44.46a2.74,2.74,0,0,0-5,0,.67.67,0,0,0,0,.52,2.74,2.74,0,0,0,5,0A.67.67,0,0,0,95.7,44.46Z"/><path class="cls-79" d="M52.51,174.2v11.58a3.87,3.87,0,0,0,3.94,3.8h71.8a3.87,3.87,0,0,0,3.94-3.8V174.2a3.87,3.87,0,0,0-3.94-3.8H56.45A3.87,3.87,0,0,0,52.51,174.2Z"/><g class="cls-5"><path class="cls-6" d="M68.43,142.15a4.81,4.81,0,1,1-4.81-4.81A4.81,4.81,0,0,1,68.43,142.15Z"/><rect class="cls-7" x="72.26" y="137.57" width="48.47" height="3.58"/><rect class="cls-7" x="72.26" y="143.17" width="48.47" height="3.58"/><path class="cls-6" d="M125.52,146.27l3.86-3.86a.69.69,0,0,0,0-1l-3.86-3.85a.68.68,0,0,0-1.16.48.69.69,0,0,0,.2.48l3.37,3.37-3.37,3.38a.68.68,0,1,0,1,1Z"/></g><g class="cls-5"><path class="cls-6" d="M68.43,161.07a4.81,4.81,0,1,1-4.81-4.82A4.81,4.81,0,0,1,68.43,161.07Z"/><rect class="cls-7" x="72.26" y="156.48" width="48.47" height="3.58"/><rect class="cls-7" x="72.26" y="162.08" width="48.47" height="3.58"/><path class="cls-6" d="M125.52,165.18l3.86-3.85a.7.7,0,0,0,0-1l-3.86-3.85a.68.68,0,0,0-1.16.48.69.69,0,0,0,.2.48l3.37,3.37-3.37,3.38a.68.68,0,0,0,1,1Z"/></g><g class="cls-80"><circle class="cls-4" cx="63.62" cy="179.98" r="4.81"/><rect class="cls-4" x="72.26" y="175.39" width="48.47" height="3.58"/><rect class="cls-4" x="72.26" y="180.99" width="48.47" height="3.58"/><path class="cls-4" d="M125.52,184.09l3.86-3.85a.69.69,0,0,0,0-1l-3.86-3.86a.67.67,0,0,0-1,0,.68.68,0,0,0,0,1l3.37,3.38-3.37,3.37a.68.68,0,1,0,1,1Z"/></g><path class="cls-81" d="M96.34,201.57a3.5,3.5,0,0,0-5,5L93.86,209l2.48-2.48A3.51,3.51,0,0,0,96.34,201.57Zm-2.54,3.86a1.54,1.54,0,1,1,1.54-1.54A1.54,1.54,0,0,1,93.8,205.43Z"/><path class="cls-82" d="M82.27,207.57l-1.81-1.81A3.36,3.36,0,0,0,81,204a3.31,3.31,0,1,0-1.47,2.75l1.8,1.8a.69.69,0,0,0,.48.2.67.67,0,0,0,.47-1.14ZM75.7,204a2,2,0,1,1,2,2A2,2,0,0,1,75.7,204Z"/><path class="cls-83" d="M56.92,204.05h0a.6.6,0,0,1,.22-.82l4.23-2.44a.62.62,0,0,1,.62,0l4.18,2.41a.59.59,0,0,1,.22.82h0a.59.59,0,0,1-.82.22L62,202.17a.62.62,0,0,0-.62,0l-3.63,2.1A.59.59,0,0,1,56.92,204.05Z"/><path class="cls-84" d="M58.52,205.29v2.8a.54.54,0,0,0,.54.54H64.3a.55.55,0,0,0,.55-.54v-2.8a.56.56,0,0,0-.28-.47L62,203.31a.52.52,0,0,0-.54,0l-2.62,1.51A.55.55,0,0,0,58.52,205.29Z"/><path class="cls-85" d="M109,209a1,1,0,0,0,1-.92h-2A1,1,0,0,0,109,209Z"/><path class="cls-86" d="M112.64,207l-.85-1.27v-1.65a2.73,2.73,0,0,0-2.29-2.69v-.7a.52.52,0,0,0-1,0v.72a2.74,2.74,0,0,0-2.16,2.67v1.44l-1,1.48a.39.39,0,0,0,.32.61h6.66A.4.4,0,0,0,112.64,207Z"/><path class="cls-87" d="M124.37,206.84a.91.91,0,1,0,.9.9A.9.9,0,0,0,124.37,206.84Z"/><path class="cls-88" d="M127.88,206.84a.91.91,0,1,0,.9.9A.9.9,0,0,0,127.88,206.84Z"/><path class="cls-89" d="M130.07,202.17a.52.52,0,0,0-.42-.22h-6.77l-.44-1.16a.53.53,0,0,0-.48-.32h-.85a.51.51,0,0,0-.51.51h0a.51.51,0,0,0,.51.51h.5l1.69,4.33a.5.5,0,0,0,.47.32h4.62a.49.49,0,0,0,.47-.32l1.26-3.18A.52.52,0,0,0,130.07,202.17Z"/><line class="cls-36" x1="57.97" y1="195.1" x2="128.29" y2="195.1"/><path class="cls-90" d="M129,22.8H57.17l81.38,175.35V32.36A9.55,9.55,0,0,0,129,22.8Z"/><ellipse class="cls-91" cx="91.53" cy="232.79" rx="73.52" ry="9.61"/><path class="cls-10" d="M53.82,86.22H33.74a5.45,5.45,0,0,0-5.45,5.45v37.25"/><path class="cls-14" d="M57.52,86.22a3.28,3.28,0,1,1-3.27-3.28A3.28,3.28,0,0,1,57.52,86.22Z"/><path class="cls-15" d="M55.73,86.22a1.48,1.48,0,1,1-1.48-1.48A1.49,1.49,0,0,1,55.73,86.22Z"/><rect class="cls-92" x="7.05" y="126.41" width="89.53" height="26.33" rx="5.05"/><path class="cls-93" d="M25.33,126.41H9a5,5,0,0,0-5,5.05v16.23a5,5,0,0,0,5,5.05h16.3Z"/><rect class="cls-94" x="30.68" y="134.52" width="49.5" height="3.65"/><rect class="cls-7" x="30.68" y="140.23" width="49.5" height="3.65"/><path class="cls-95" d="M86.39,143.4l3.94-3.93a.71.71,0,0,0,0-1l-3.94-3.93a.68.68,0,0,0-1,0,.67.67,0,0,0-.21.49.7.7,0,0,0,.21.49L88.85,139l-3.44,3.44a.69.69,0,0,0,1,1Z"/><g class="cls-96"><rect class="cls-4" x="8.23" y="131.89" width="12.31" height="13.25" rx="2.63"/><g class="cls-59"><path class="cls-97" d="M6.28,144,10,140.37a.85.85,0,0,1,1.23,0L13,142.34,16.33,138a.9.9,0,0,1,1.39-.06l6.76,7.47H6.11Z"/><path class="cls-98" d="M12.37,135.49a1.44,1.44,0,1,1-1.44-1.43A1.44,1.44,0,0,1,12.37,135.49Z"/></g></g><line class="cls-10" x1="201.43" y1="40.42" x2="201.43" y2="54.6"/><path class="cls-10" d="M92.31,23.6V6.89A6.42,6.42,0,0,1,98.74.47h94.51a8.18,8.18,0,0,1,8.18,8.17V27"/><path class="cls-14" d="M95.93,23.09a3.27,3.27,0,1,1-3.27-3.27A3.26,3.26,0,0,1,95.93,23.09Z"/><path class="cls-15" d="M94.14,23.09a1.48,1.48,0,1,1-1.48-1.48A1.48,1.48,0,0,1,94.14,23.09Z"/><path class="cls-14" d="M210.24,32h-.39a1.31,1.31,0,0,1-.93-2.23l.28-.28a1.31,1.31,0,0,0,0-1.85l-1-1.06a1.31,1.31,0,0,0-1.85,0l-.29.29a1.31,1.31,0,0,1-2.23-.93v-.4a1.3,1.3,0,0,0-1.31-1.3H201a1.31,1.31,0,0,0-1.31,1.3v.4a1.31,1.31,0,0,1-2.23.93l-.28-.29a1.31,1.31,0,0,0-1.85,0l-1.06,1.06a1.31,1.31,0,0,0,0,1.85l.28.28a1.3,1.3,0,0,1-.92,2.23h-.4a1.31,1.31,0,0,0-1.31,1.31v1.5a1.31,1.31,0,0,0,1.31,1.3h.4a1.31,1.31,0,0,1,.92,2.24l-.28.28a1.31,1.31,0,0,0,0,1.85l1.06,1.05a1.31,1.31,0,0,0,1.85,0l.28-.28a1.31,1.31,0,0,1,2.23.93v.39A1.31,1.31,0,0,0,201,43.88h1.49a1.3,1.3,0,0,0,1.31-1.31v-.39a1.31,1.31,0,0,1,2.23-.93l.29.28a1.31,1.31,0,0,0,1.85,0l1-1.05a1.31,1.31,0,0,0,0-1.85l-.28-.28a1.31,1.31,0,0,1,.93-2.24h.39a1.31,1.31,0,0,0,1.31-1.3v-1.5A1.31,1.31,0,0,0,210.24,32Zm-8.51,5.56a3.5,3.5,0,1,1,3.5-3.5A3.5,3.5,0,0,1,201.73,37.56Z"/><ellipse class="cls-99" cx="206.96" cy="283.26" rx="81.15" ry="10.61"/><path class="cls-100" d="M161.23,51.06h82.25a10.65,10.65,0,0,1,10.65,10.65v197A10.25,10.25,0,0,1,243.89,269H160.82a10.25,10.25,0,0,1-10.25-10.25v-197a10.65,10.65,0,0,1,10.65-10.65Z"/><path class="cls-101" d="M163.88,264.78a9.67,9.67,0,0,1-9.66-9.66V63.82a9.67,9.67,0,0,1,9.66-9.66h14.33v4.18a3.38,3.38,0,0,0,3.38,3.37h41.53a3.38,3.38,0,0,0,3.38-3.37V54.16h14.33a9.67,9.67,0,0,1,9.66,9.66v191.3a9.67,9.67,0,0,1-9.66,9.66Z"/><path class="cls-102" d="M250.49,116.16V63.82a9.67,9.67,0,0,0-9.66-9.66H226.5v4.18a3.38,3.38,0,0,1-3.38,3.37H181.59a3.38,3.38,0,0,1-3.38-3.37V54.16H163.88a9.67,9.67,0,0,0-9.66,9.66v52.34Z"/><path class="cls-103" d="M243.48,51.06H163.37L254.13,246.6V61.71A10.64,10.64,0,0,0,243.48,51.06Z"/><path class="cls-16" d="M240.7,70.62h-.18a.57.57,0,0,1-.4-1l.12-.13a.58.58,0,0,0,0-.81l-.46-.46a.57.57,0,0,0-.82,0l-.12.12a.57.57,0,0,1-1-.41v-.17a.58.58,0,0,0-.58-.58h-.65a.58.58,0,0,0-.58.58V68a.57.57,0,0,1-1,.41l-.12-.12a.56.56,0,0,0-.81,0l-.47.46a.58.58,0,0,0,0,.81l.12.13a.57.57,0,0,1-.4,1h-.18a.57.57,0,0,0-.57.57v.66a.57.57,0,0,0,.57.57h.18a.57.57,0,0,1,.4,1l-.12.13a.58.58,0,0,0,0,.81l.47.46a.56.56,0,0,0,.81,0l.12-.12a.58.58,0,0,1,1,.41v.17a.58.58,0,0,0,.58.58h.65a.58.58,0,0,0,.58-.58v-.17a.58.58,0,0,1,1-.41l.12.12a.57.57,0,0,0,.82,0l.46-.46a.58.58,0,0,0,0-.81l-.12-.13a.57.57,0,0,1,.4-1h.18a.57.57,0,0,0,.57-.57v-.66A.57.57,0,0,0,240.7,70.62ZM237,73.06a1.54,1.54,0,1,1,1.53-1.54A1.54,1.54,0,0,1,237,73.06Z"/><rect class="cls-16" x="161.09" y="66.78" width="10.26" height="1.51"/><rect class="cls-16" x="161.09" y="70" width="10.26" height="1.51"/><rect class="cls-16" x="161.09" y="73.22" width="10.26" height="1.51"/><circle class="cls-4" cx="202.24" cy="94.86" r="14.87" transform="translate(-10.11 25.52) rotate(-7.04)"/><path class="cls-104" d="M202.43,93.53a3,3,0,1,0-3-3A3,3,0,0,0,202.43,93.53Z"/><path class="cls-105" d="M208.65,98.85a6.82,6.82,0,0,0-12.44,0,1.58,1.58,0,0,0,0,1.28,6.82,6.82,0,0,0,12.44,0A1.58,1.58,0,0,0,208.65,98.85Z"/><path class="cls-106" d="M219.43,231.69H186.26a5.72,5.72,0,0,1-5.73-5.73h0a5.73,5.73,0,0,1,5.73-5.73h33.17a5.74,5.74,0,0,1,5.73,5.73h0A5.73,5.73,0,0,1,219.43,231.69Z"/><text class="cls-107" transform="translate(193.45 227.3)">Si<tspan class="cls-108" x="3.11" y="0">g</tspan><tspan x="5.48" y="0">n Up</tspan></text><path class="cls-7" d="M219.43,247.2H186.26a5.73,5.73,0,0,1-5.73-5.73h0a5.72,5.72,0,0,1,5.73-5.73h33.17a5.73,5.73,0,0,1,5.73,5.73h0A5.74,5.74,0,0,1,219.43,247.2Z"/><text class="cls-107" transform="translate(195.67 242.81)"><tspan class="cls-109">L</tspan><tspan class="cls-110" x="1.96" y="0">og </tspan><tspan class="cls-111" x="7.61" y="0">I</tspan><tspan x="8.68" y="0">n</tspan></text><rect class="cls-112" x="165.62" y="131.04" width="73.64" height="18.91" rx="9.46"/><text class="cls-113" transform="translate(186.64 141.42)"><tspan class="cls-114">U</tspan><tspan x="3.48" y="0">ser name</tspan></text><circle class="cls-115" cx="174.91" cy="140.15" r="6.34"/><path class="cls-16" d="M174.86,138.46a1.57,1.57,0,1,0-1.56-1.57A1.57,1.57,0,0,0,174.86,138.46Z"/><path class="cls-16" d="M178.11,141.24a3.56,3.56,0,0,0-6.49,0,.76.76,0,0,0,0,.66,3.56,3.56,0,0,0,6.49,0A.76.76,0,0,0,178.11,141.24Z"/><rect class="cls-116" x="165.62" y="155.95" width="73.64" height="18.91" rx="9.46"/><text class="cls-113" transform="translate(186.64 166.68)"><tspan class="cls-117">P</tspan><tspan x="2.75" y="0">ass</tspan><tspan class="cls-118" x="9.67" y="0">w</tspan><tspan x="13.61" y="0">o</tspan><tspan class="cls-119" x="16.6" y="0">r</tspan><tspan class="cls-120" x="18.32" y="0">d</tspan></text><path class="cls-121" d="M168.57,165a6.34,6.34,0,1,1,6.34,6.34A6.34,6.34,0,0,1,168.57,165Z"/><path class="cls-4" d="M174.2,162.78v-.09a.85.85,0,0,1,1.7,0v.09h.9v-.09a1.75,1.75,0,0,0-3.5,0v.09Z"/><path class="cls-4" d="M177,163.29h-3.94a.82.82,0,0,0-.82.82v2.81a.82.82,0,0,0,.82.82H177a.82.82,0,0,0,.82-.82v-2.81A.82.82,0,0,0,177,163.29Zm-1.58,2.4v.93h-.7v-1a.65.65,0,1,1,1-.53A.62.62,0,0,1,175.42,165.69Z"/><path class="cls-122" d="M229.81,199.77H175.08a9.46,9.46,0,0,1-9.46-9.45h0a9.46,9.46,0,0,1,9.46-9.46h54.73a9.46,9.46,0,0,1,9.46,9.46h0A9.46,9.46,0,0,1,229.81,199.77Z"/><text class="cls-113" transform="translate(186.64 191.6)">Email</text><circle class="cls-123" cx="174.91" cy="189.87" r="6.34"/><path class="cls-4" d="M174.2,187.69v-.09a.85.85,0,0,1,1.7,0v.09h.9v-.09a1.75,1.75,0,1,0-3.5,0v.09Z"/><path class="cls-4" d="M177,188.2h-3.94a.82.82,0,0,0-.82.82v2.81a.82.82,0,0,0,.82.82H177a.82.82,0,0,0,.82-.82V189A.82.82,0,0,0,177,188.2Zm-1.58,2.4v.93h-.7v-.95a.65.65,0,1,1,1-.53A.62.62,0,0,1,175.42,190.6Z"/><rect class="cls-7" x="186.24" y="207.71" width="50.79" height="3.74"/><path class="cls-124" d="M177.6,212.25h-5.69a2.56,2.56,0,0,1-2.56-2.56h0a2.55,2.55,0,0,1,2.56-2.56h5.69a2.56,2.56,0,0,1,2.56,2.56h0A2.56,2.56,0,0,1,177.6,212.25Z"/><path class="cls-4" d="M178.81,209.61a1.47,1.47,0,1,1-1.47-1.47A1.47,1.47,0,0,1,178.81,209.61Z"/></g></g></svg>