<svg xmlns="http://www.w3.org/2000/svg" xmlns:xlink="http://www.w3.org/1999/xlink" viewBox="0 0 221.46 442"><defs><style>.cls-1{filter:url(#filter);}.cls-2{fill:url(#Degradado_sin_nombre_8);}.cls-3{fill:url(#Degradado_sin_nombre_9);}</style><filter id="filter"><feOffset dx="-7" dy="7" input="SourceAlpha"/><feGaussianBlur stdDeviation="5" result="blur"/><feFlood/><feComposite operator="in" in2="blur"/><feComposite in="SourceGraphic"/></filter><linearGradient id="Degradado_sin_nombre_8" x1="-6.69" y1="169.78" x2="177.48" y2="51.85" gradientUnits="userSpaceOnUse"><stop offset="0" stop-color="#e6e6e6"/><stop offset="0.58" stop-color="#b7b7b7"/><stop offset="1" stop-color="#999"/></linearGradient><linearGradient id="Degradado_sin_nombre_9" x1="43.79" y1="400.59" x2="220.4" y2="263.18" gradientUnits="userSpaceOnUse"><stop offset="0" stop-color="#f2f2f2"/><stop offset="0.41" stop-color="#dbdbdb"/><stop offset="1" stop-color="#b3b3b3"/></linearGradient></defs><g id="Capa_2" data-name="Capa 2"><g id="Capa_1-2" data-name="Capa 1"><g class="cls-1"><path class="cls-2" d="M.35,267.91,0,103.33a110.5,110.5,0,1,1,216,39.5l-40.81,23.68L175,116c.16-1.86.24-3.75.24-5.66s-.09-3.8-.27-5.66a65,65,0,0,0-42.11-55.16l.3,141.31L87.24,217.51,86.89,49.84A65.07,65.07,0,0,0,46,100.74a65.92,65.92,0,0,0-.72,9.9,64.62,64.62,0,0,0,.77,9.9l.25,120.73Z"/><path class="cls-3" d="M87.72,439.59v-.2l-.25.14a109.78,109.78,0,0,1-40.79-18v-.28l-.21.12a111,111,0,0,1-28.36-29.61A110.33,110.33,0,0,1,.5,339.14l0-14.82A106.74,106.74,0,0,1,2.38,309.8l44-25.53,41-23.76,45.94-26.66,12.41-7.21,29.54-17.13,45.94-26.66.11,51-32.85,19.06-13.09,7.6-28.82,16.72-13.13,7.62L87.44,311.51,46.49,335.27l-.62.36c.12,2,.33,4,.64,5.91a65.07,65.07,0,0,0,41.11,50.72v5.25l5.76-3.35a65,65,0,0,0,80.34-46.61l-40.16,23.3L93.39,394.16c-2-.54-3.89-1.18-5.77-1.9l-.09-40.75,45.94-26.66,36.13-21,5.82-3.38L209.05,281l12.31-7.15.1,46-.79.47c.37,3.59.56,7.25.57,10.94A110.56,110.56,0,0,1,87.72,439.59Z"/></g></g></g></svg>